<mxfile host="app.diagrams.net" agent="Mozilla/5.0 (Windows NT 10.0; Win64; x64) AppleWebKit/537.36 (KHTML, like Gecko) Chrome/127.0.0.0 Safari/537.36" version="24.7.6" pages="2">
  <diagram id="dTcTWUIS4su387DnhEK_" name="Page-1">
    <mxGraphModel dx="1194" dy="592" grid="1" gridSize="10" guides="1" tooltips="1" connect="1" arrows="1" fold="1" page="1" pageScale="1" pageWidth="827" pageHeight="1169" math="0" shadow="0">
      <root>
        <mxCell id="0" />
        <mxCell id="1" parent="0" />
        <mxCell id="rHMRhhfsmZjwr-JyM9iI-22" value="" style="rounded=0;whiteSpace=wrap;html=1;fillColor=none;dashed=1;labelBackgroundColor=none;" parent="1" vertex="1">
          <mxGeometry x="160" y="40" width="1170" height="370" as="geometry" />
        </mxCell>
        <mxCell id="rHMRhhfsmZjwr-JyM9iI-27" style="edgeStyle=orthogonalEdgeStyle;rounded=0;orthogonalLoop=1;jettySize=auto;html=1;dashed=1;labelBackgroundColor=none;" parent="1" source="rHMRhhfsmZjwr-JyM9iI-26" target="rHMRhhfsmZjwr-JyM9iI-19" edge="1">
          <mxGeometry relative="1" as="geometry" />
        </mxCell>
        <mxCell id="rHMRhhfsmZjwr-JyM9iI-30" style="edgeStyle=orthogonalEdgeStyle;rounded=0;orthogonalLoop=1;jettySize=auto;html=1;endArrow=none;endFill=0;fillColor=#dae8fc;strokeColor=#6c8ebf;labelBackgroundColor=none;" parent="1" source="rHMRhhfsmZjwr-JyM9iI-26" target="rHMRhhfsmZjwr-JyM9iI-20" edge="1">
          <mxGeometry relative="1" as="geometry">
            <Array as="points">
              <mxPoint x="730" y="190" />
              <mxPoint x="730" y="190" />
            </Array>
          </mxGeometry>
        </mxCell>
        <mxCell id="-X691ST315V3n6Ed_qC9-4" value="Metric Data&lt;br&gt;Audit &amp;amp; Diagnostic Logs" style="edgeStyle=orthogonalEdgeStyle;rounded=0;orthogonalLoop=1;jettySize=auto;html=1;labelBackgroundColor=none;dashed=1;" parent="1" source="rHMRhhfsmZjwr-JyM9iI-26" target="-X691ST315V3n6Ed_qC9-3" edge="1">
          <mxGeometry relative="1" as="geometry">
            <Array as="points">
              <mxPoint x="1110" y="125" />
              <mxPoint x="1110" y="125" />
            </Array>
          </mxGeometry>
        </mxCell>
        <mxCell id="rHMRhhfsmZjwr-JyM9iI-34" style="edgeStyle=orthogonalEdgeStyle;rounded=0;orthogonalLoop=1;jettySize=auto;html=1;fillColor=#dae8fc;strokeColor=#6c8ebf;labelBackgroundColor=none;" parent="1" source="rHMRhhfsmZjwr-JyM9iI-25" target="rHMRhhfsmZjwr-JyM9iI-26" edge="1">
          <mxGeometry relative="1" as="geometry">
            <Array as="points">
              <mxPoint x="710" y="120" />
              <mxPoint x="710" y="120" />
            </Array>
          </mxGeometry>
        </mxCell>
        <mxCell id="-X691ST315V3n6Ed_qC9-6" style="edgeStyle=orthogonalEdgeStyle;rounded=0;orthogonalLoop=1;jettySize=auto;html=1;dashed=1;labelBackgroundColor=none;entryX=0.5;entryY=1;entryDx=0;entryDy=0;" parent="1" source="rHMRhhfsmZjwr-JyM9iI-25" target="-X691ST315V3n6Ed_qC9-3" edge="1">
          <mxGeometry relative="1" as="geometry">
            <mxPoint x="1250" y="300" as="targetPoint" />
            <Array as="points">
              <mxPoint x="458" y="340" />
              <mxPoint x="1250" y="340" />
            </Array>
          </mxGeometry>
        </mxCell>
        <mxCell id="-X691ST315V3n6Ed_qC9-7" value="Diagnostic Logs &amp;amp; Metric Data" style="edgeLabel;html=1;align=center;verticalAlign=middle;resizable=0;points=[];labelBackgroundColor=none;" parent="-X691ST315V3n6Ed_qC9-6" vertex="1" connectable="0">
          <mxGeometry x="-0.561" relative="1" as="geometry">
            <mxPoint x="6" y="-7" as="offset" />
          </mxGeometry>
        </mxCell>
        <mxCell id="rHMRhhfsmZjwr-JyM9iI-25" value="" style="rounded=0;whiteSpace=wrap;html=1;dashed=1;labelBackgroundColor=none;fillColor=#E6E6E6;strokeColor=none;" parent="1" vertex="1">
          <mxGeometry x="290" y="100.5" width="336" height="180" as="geometry" />
        </mxCell>
        <mxCell id="rHMRhhfsmZjwr-JyM9iI-24" value="" style="rounded=0;whiteSpace=wrap;html=1;dashed=1;fillColor=#E6E6E6;strokeColor=none;labelBackgroundColor=none;" parent="1" vertex="1">
          <mxGeometry x="300" y="290" width="140" height="85" as="geometry" />
        </mxCell>
        <mxCell id="rHMRhhfsmZjwr-JyM9iI-1" value="Azure Active Directory" style="aspect=fixed;html=1;points=[];align=center;image;fontSize=12;image=img/lib/azure2/identity/Azure_Active_Directory.svg;fontFamily=Helvetica;fontColor=default;strokeColor=none;fillColor=#00BEF2;labelPosition=center;verticalLabelPosition=top;verticalAlign=bottom;labelBackgroundColor=none;" parent="1" vertex="1">
          <mxGeometry x="49.75" y="20" width="62.5" height="70" as="geometry" />
        </mxCell>
        <mxCell id="rHMRhhfsmZjwr-JyM9iI-5" value="DNS Lookup" style="edgeStyle=orthogonalEdgeStyle;rounded=0;orthogonalLoop=1;jettySize=auto;html=1;dashed=1;labelBackgroundColor=none;" parent="1" source="rHMRhhfsmZjwr-JyM9iI-3" target="rHMRhhfsmZjwr-JyM9iI-4" edge="1">
          <mxGeometry relative="1" as="geometry" />
        </mxCell>
        <mxCell id="rHMRhhfsmZjwr-JyM9iI-6" value="Authentication" style="edgeStyle=orthogonalEdgeStyle;rounded=0;orthogonalLoop=1;jettySize=auto;html=1;dashed=1;labelBackgroundColor=none;" parent="1" source="rHMRhhfsmZjwr-JyM9iI-3" target="rHMRhhfsmZjwr-JyM9iI-1" edge="1">
          <mxGeometry relative="1" as="geometry" />
        </mxCell>
        <mxCell id="rHMRhhfsmZjwr-JyM9iI-14" style="edgeStyle=orthogonalEdgeStyle;rounded=0;orthogonalLoop=1;jettySize=auto;html=1;fillColor=#dae8fc;strokeColor=#6c8ebf;labelBackgroundColor=none;" parent="1" source="rHMRhhfsmZjwr-JyM9iI-3" target="rHMRhhfsmZjwr-JyM9iI-7" edge="1">
          <mxGeometry relative="1" as="geometry" />
        </mxCell>
        <mxCell id="rHMRhhfsmZjwr-JyM9iI-3" value="Internet" style="shape=image;html=1;verticalAlign=middle;verticalLabelPosition=middle;labelBackgroundColor=none;imageAspect=0;aspect=fixed;image=https://cdn4.iconfinder.com/data/icons/for-your-interface-free-samples/128/Globe-128.png;labelPosition=left;align=right;" parent="1" vertex="1">
          <mxGeometry x="47.25" y="171" width="65" height="65" as="geometry" />
        </mxCell>
        <mxCell id="rHMRhhfsmZjwr-JyM9iI-4" value="Azure DNS" style="aspect=fixed;html=1;points=[];align=center;image;fontSize=12;image=img/lib/azure2/networking/DNS_Zones.svg;labelBackgroundColor=none;" parent="1" vertex="1">
          <mxGeometry x="55.63" y="330" width="48.25" height="48.25" as="geometry" />
        </mxCell>
        <mxCell id="rHMRhhfsmZjwr-JyM9iI-13" style="edgeStyle=orthogonalEdgeStyle;rounded=0;orthogonalLoop=1;jettySize=auto;html=1;fillColor=#dae8fc;strokeColor=#6c8ebf;labelBackgroundColor=none;" parent="1" source="rHMRhhfsmZjwr-JyM9iI-7" target="rHMRhhfsmZjwr-JyM9iI-28" edge="1">
          <mxGeometry relative="1" as="geometry">
            <Array as="points">
              <mxPoint x="290" y="204" />
              <mxPoint x="290" y="204" />
            </Array>
          </mxGeometry>
        </mxCell>
        <mxCell id="rHMRhhfsmZjwr-JyM9iI-7" value="Azure Front Door&lt;br&gt;WAF&lt;br&gt;CDN" style="aspect=fixed;html=1;points=[];align=center;image;fontSize=12;image=img/lib/azure2/networking/Front_Doors.svg;labelPosition=center;verticalLabelPosition=top;verticalAlign=bottom;labelBackgroundColor=none;" parent="1" vertex="1">
          <mxGeometry x="191" y="174" width="68" height="60" as="geometry" />
        </mxCell>
        <mxCell id="rHMRhhfsmZjwr-JyM9iI-11" style="edgeStyle=orthogonalEdgeStyle;rounded=0;orthogonalLoop=1;jettySize=auto;html=1;fillColor=#dae8fc;strokeColor=#6c8ebf;labelBackgroundColor=none;" parent="1" source="rHMRhhfsmZjwr-JyM9iI-28" target="rHMRhhfsmZjwr-JyM9iI-10" edge="1">
          <mxGeometry relative="1" as="geometry">
            <Array as="points">
              <mxPoint x="410" y="204" />
              <mxPoint x="410" y="204" />
            </Array>
          </mxGeometry>
        </mxCell>
        <mxCell id="rHMRhhfsmZjwr-JyM9iI-12" style="edgeStyle=orthogonalEdgeStyle;rounded=0;orthogonalLoop=1;jettySize=auto;html=1;fillColor=#dae8fc;strokeColor=#6c8ebf;labelBackgroundColor=none;" parent="1" source="rHMRhhfsmZjwr-JyM9iI-10" target="rHMRhhfsmZjwr-JyM9iI-29" edge="1">
          <mxGeometry relative="1" as="geometry">
            <Array as="points">
              <mxPoint x="520" y="204" />
              <mxPoint x="520" y="204" />
            </Array>
          </mxGeometry>
        </mxCell>
        <mxCell id="rHMRhhfsmZjwr-JyM9iI-10" value="Queue" style="verticalLabelPosition=top;html=1;verticalAlign=bottom;align=center;strokeColor=none;fillColor=#00BEF2;shape=mxgraph.azure.storage_queue;labelPosition=center;labelBackgroundColor=none;" parent="1" vertex="1">
          <mxGeometry x="437" y="181.5" width="50" height="45" as="geometry" />
        </mxCell>
        <mxCell id="rHMRhhfsmZjwr-JyM9iI-16" style="edgeStyle=orthogonalEdgeStyle;rounded=0;orthogonalLoop=1;jettySize=auto;html=1;fillColor=#dae8fc;strokeColor=#6c8ebf;labelBackgroundColor=none;" parent="1" source="rHMRhhfsmZjwr-JyM9iI-15" target="rHMRhhfsmZjwr-JyM9iI-7" edge="1">
          <mxGeometry relative="1" as="geometry" />
        </mxCell>
        <mxCell id="rHMRhhfsmZjwr-JyM9iI-15" value="Blob" style="verticalLabelPosition=bottom;html=1;verticalAlign=top;align=center;strokeColor=none;fillColor=#00BEF2;shape=mxgraph.azure.storage_blob;labelBackgroundColor=none;" parent="1" vertex="1">
          <mxGeometry x="310" y="305" width="50" height="45" as="geometry" />
        </mxCell>
        <mxCell id="rHMRhhfsmZjwr-JyM9iI-35" style="edgeStyle=orthogonalEdgeStyle;rounded=0;orthogonalLoop=1;jettySize=auto;html=1;fillColor=#dae8fc;strokeColor=#6c8ebf;labelBackgroundColor=none;" parent="1" source="rHMRhhfsmZjwr-JyM9iI-19" target="rHMRhhfsmZjwr-JyM9iI-25" edge="1">
          <mxGeometry relative="1" as="geometry">
            <Array as="points">
              <mxPoint x="680" y="264" />
              <mxPoint x="680" y="264" />
            </Array>
          </mxGeometry>
        </mxCell>
        <mxCell id="rHMRhhfsmZjwr-JyM9iI-19" value="Azure Search" style="aspect=fixed;html=1;points=[];align=center;image;fontSize=12;image=img/lib/azure2/app_services/Search_Services.svg;labelBackgroundColor=none;" parent="1" vertex="1">
          <mxGeometry x="854" y="236" width="72" height="52" as="geometry" />
        </mxCell>
        <mxCell id="rHMRhhfsmZjwr-JyM9iI-31" style="rounded=0;orthogonalLoop=1;jettySize=auto;html=1;edgeStyle=orthogonalEdgeStyle;fillColor=#dae8fc;strokeColor=#6c8ebf;labelBackgroundColor=none;" parent="1" source="rHMRhhfsmZjwr-JyM9iI-20" target="rHMRhhfsmZjwr-JyM9iI-25" edge="1">
          <mxGeometry relative="1" as="geometry">
            <Array as="points">
              <mxPoint x="640" y="190" />
              <mxPoint x="640" y="190" />
            </Array>
          </mxGeometry>
        </mxCell>
        <mxCell id="rHMRhhfsmZjwr-JyM9iI-20" value="Redis Cache" style="aspect=fixed;html=1;points=[];align=center;image;fontSize=12;image=img/lib/azure2/databases/Cache_Redis.svg;labelBackgroundColor=none;" parent="1" vertex="1">
          <mxGeometry x="650" y="160" width="64" height="52" as="geometry" />
        </mxCell>
        <mxCell id="rHMRhhfsmZjwr-JyM9iI-21" value="Static Content" style="aspect=fixed;html=1;points=[];align=center;image;fontSize=12;image=img/lib/azure2/general/File.svg;labelBackgroundColor=none;" parent="1" vertex="1">
          <mxGeometry x="379" y="305" width="36.51" height="45" as="geometry" />
        </mxCell>
        <mxCell id="rHMRhhfsmZjwr-JyM9iI-23" value="Resource Group" style="aspect=fixed;html=1;points=[];align=center;image;fontSize=12;image=img/lib/azure2/general/Resource_Groups.svg;dashed=1;fillColor=none;labelBackgroundColor=none;" parent="1" vertex="1">
          <mxGeometry x="150" y="390" width="30" height="28.24" as="geometry" />
        </mxCell>
        <mxCell id="rHMRhhfsmZjwr-JyM9iI-32" value="" style="group;labelBackgroundColor=none;strokeColor=none;" parent="1" vertex="1" connectable="0">
          <mxGeometry x="525" y="111" width="90" height="159" as="geometry" />
        </mxCell>
        <mxCell id="rHMRhhfsmZjwr-JyM9iI-29" value="" style="rounded=0;whiteSpace=wrap;html=1;dashed=1;labelBackgroundColor=none;fillColor=#FFFFFF;labelPosition=center;verticalLabelPosition=top;align=center;verticalAlign=bottom;spacingTop=0;spacingBottom=-35;strokeColor=none;" parent="rHMRhhfsmZjwr-JyM9iI-32" vertex="1">
          <mxGeometry width="90" height="159" as="geometry" />
        </mxCell>
        <mxCell id="rHMRhhfsmZjwr-JyM9iI-9" value="Function App" style="aspect=fixed;html=1;points=[];align=center;image;fontSize=12;image=img/lib/azure2/compute/Function_Apps.svg;labelPosition=center;verticalLabelPosition=top;verticalAlign=bottom;labelBackgroundColor=none;" parent="rHMRhhfsmZjwr-JyM9iI-32" vertex="1">
          <mxGeometry x="11" y="83" width="68" height="60" as="geometry" />
        </mxCell>
        <mxCell id="rHMRhhfsmZjwr-JyM9iI-33" value="" style="group;labelBackgroundColor=none;strokeColor=none;" parent="1" vertex="1" connectable="0">
          <mxGeometry x="303" y="111" width="90" height="159" as="geometry" />
        </mxCell>
        <mxCell id="rHMRhhfsmZjwr-JyM9iI-28" value="App Service Plan" style="rounded=0;whiteSpace=wrap;html=1;dashed=1;labelBackgroundColor=none;fillColor=#FFFFFF;labelPosition=center;verticalLabelPosition=top;align=center;verticalAlign=bottom;spacingTop=0;spacingBottom=-35;strokeColor=none;" parent="rHMRhhfsmZjwr-JyM9iI-33" vertex="1">
          <mxGeometry width="90" height="159" as="geometry" />
        </mxCell>
        <mxCell id="rHMRhhfsmZjwr-JyM9iI-8" value="Web App" style="aspect=fixed;html=1;points=[];align=center;image;fontSize=12;image=img/lib/azure2/compute/App_Services.svg;labelPosition=center;verticalLabelPosition=top;verticalAlign=bottom;labelBackgroundColor=none;" parent="rHMRhhfsmZjwr-JyM9iI-33" vertex="1">
          <mxGeometry x="13" y="81" width="64" height="64" as="geometry" />
        </mxCell>
        <mxCell id="-X691ST315V3n6Ed_qC9-5" value="" style="group;labelBackgroundColor=none;strokeColor=none;" parent="1" vertex="1" connectable="0">
          <mxGeometry x="1190" y="50" width="120" height="230" as="geometry" />
        </mxCell>
        <mxCell id="-X691ST315V3n6Ed_qC9-3" value="" style="rounded=0;whiteSpace=wrap;html=1;dashed=1;labelBackgroundColor=none;fillColor=#E6E6E6;strokeColor=none;" parent="-X691ST315V3n6Ed_qC9-5" vertex="1">
          <mxGeometry width="120" height="230" as="geometry" />
        </mxCell>
        <mxCell id="-X691ST315V3n6Ed_qC9-1" value="Azure Monitor" style="aspect=fixed;html=1;points=[];align=center;image;fontSize=12;image=img/lib/azure2/management_governance/Monitor.svg;dashed=1;labelBackgroundColor=none;fillColor=#FFFFFF;" parent="-X691ST315V3n6Ed_qC9-5" vertex="1">
          <mxGeometry x="28" y="15" width="64" height="64" as="geometry" />
        </mxCell>
        <mxCell id="-X691ST315V3n6Ed_qC9-2" value="Log Analytics" style="aspect=fixed;html=1;points=[];align=center;image;fontSize=12;image=img/lib/azure2/analytics/Log_Analytics_Workspaces.svg;dashed=1;labelBackgroundColor=none;fillColor=#FFFFFF;" parent="-X691ST315V3n6Ed_qC9-5" vertex="1">
          <mxGeometry x="28" y="120" width="64" height="64" as="geometry" />
        </mxCell>
        <mxCell id="-X691ST315V3n6Ed_qC9-8" value="" style="group;labelBackgroundColor=none;strokeColor=none;" parent="1" vertex="1" connectable="0">
          <mxGeometry x="750" y="40" width="300" height="150" as="geometry" />
        </mxCell>
        <mxCell id="rHMRhhfsmZjwr-JyM9iI-26" value="" style="rounded=0;whiteSpace=wrap;html=1;dashed=1;labelBackgroundColor=none;fillColor=#E6E6E6;strokeColor=none;" parent="-X691ST315V3n6Ed_qC9-8" vertex="1">
          <mxGeometry width="300" height="150" as="geometry" />
        </mxCell>
        <mxCell id="rHMRhhfsmZjwr-JyM9iI-17" value="Azure SQL Database" style="aspect=fixed;html=1;points=[];align=center;image;fontSize=12;image=img/lib/azure2/databases/SQL_Database.svg;labelBackgroundColor=none;" parent="-X691ST315V3n6Ed_qC9-8" vertex="1">
          <mxGeometry x="50" y="10" width="48" height="64" as="geometry" />
        </mxCell>
        <mxCell id="rHMRhhfsmZjwr-JyM9iI-18" value="Azure Cosmos Database" style="aspect=fixed;html=1;points=[];align=center;image;fontSize=12;image=img/lib/azure2/databases/Azure_Cosmos_DB.svg;labelBackgroundColor=none;" parent="-X691ST315V3n6Ed_qC9-8" vertex="1">
          <mxGeometry x="190" y="10" width="64" height="64" as="geometry" />
        </mxCell>
        <mxCell id="X5ZwWqdyRUsjHiMsH3oK-1" value="" style="rounded=0;whiteSpace=wrap;html=1;dashed=1;labelBackgroundColor=none;fillColor=#E6E6E6;strokeColor=none;" parent="1" vertex="1">
          <mxGeometry x="294" y="480" width="336" height="180" as="geometry" />
        </mxCell>
        <mxCell id="X5ZwWqdyRUsjHiMsH3oK-2" style="edgeStyle=orthogonalEdgeStyle;rounded=0;orthogonalLoop=1;jettySize=auto;html=1;fillColor=#dae8fc;strokeColor=#6c8ebf;labelBackgroundColor=none;" parent="1" source="X5ZwWqdyRUsjHiMsH3oK-9" target="X5ZwWqdyRUsjHiMsH3oK-4" edge="1">
          <mxGeometry relative="1" as="geometry">
            <Array as="points">
              <mxPoint x="414" y="583.5" />
              <mxPoint x="414" y="583.5" />
            </Array>
          </mxGeometry>
        </mxCell>
        <mxCell id="X5ZwWqdyRUsjHiMsH3oK-3" style="edgeStyle=orthogonalEdgeStyle;rounded=0;orthogonalLoop=1;jettySize=auto;html=1;fillColor=#dae8fc;strokeColor=#6c8ebf;labelBackgroundColor=none;" parent="1" source="X5ZwWqdyRUsjHiMsH3oK-4" target="X5ZwWqdyRUsjHiMsH3oK-6" edge="1">
          <mxGeometry relative="1" as="geometry">
            <Array as="points">
              <mxPoint x="524" y="583.5" />
              <mxPoint x="524" y="583.5" />
            </Array>
          </mxGeometry>
        </mxCell>
        <mxCell id="X5ZwWqdyRUsjHiMsH3oK-4" value="Queue" style="verticalLabelPosition=top;html=1;verticalAlign=bottom;align=center;strokeColor=none;fillColor=#00BEF2;shape=mxgraph.azure.storage_queue;labelPosition=center;labelBackgroundColor=none;" parent="1" vertex="1">
          <mxGeometry x="441" y="561" width="50" height="45" as="geometry" />
        </mxCell>
        <mxCell id="X5ZwWqdyRUsjHiMsH3oK-5" value="" style="group;labelBackgroundColor=none;strokeColor=none;" parent="1" vertex="1" connectable="0">
          <mxGeometry x="529" y="490.5" width="90" height="159" as="geometry" />
        </mxCell>
        <mxCell id="X5ZwWqdyRUsjHiMsH3oK-6" value="" style="rounded=0;whiteSpace=wrap;html=1;dashed=1;labelBackgroundColor=none;fillColor=#FFFFFF;labelPosition=center;verticalLabelPosition=top;align=center;verticalAlign=bottom;spacingTop=0;spacingBottom=-35;strokeColor=none;" parent="X5ZwWqdyRUsjHiMsH3oK-5" vertex="1">
          <mxGeometry width="90" height="159" as="geometry" />
        </mxCell>
        <mxCell id="X5ZwWqdyRUsjHiMsH3oK-7" value="Function App" style="aspect=fixed;html=1;points=[];align=center;image;fontSize=12;image=img/lib/azure2/compute/Function_Apps.svg;labelPosition=center;verticalLabelPosition=top;verticalAlign=bottom;labelBackgroundColor=none;" parent="X5ZwWqdyRUsjHiMsH3oK-5" vertex="1">
          <mxGeometry x="11" y="83" width="68" height="60" as="geometry" />
        </mxCell>
        <mxCell id="X5ZwWqdyRUsjHiMsH3oK-8" value="" style="group;labelBackgroundColor=none;strokeColor=none;" parent="1" vertex="1" connectable="0">
          <mxGeometry x="307" y="490.5" width="90" height="159" as="geometry" />
        </mxCell>
        <mxCell id="X5ZwWqdyRUsjHiMsH3oK-9" value="App Service Plan" style="rounded=0;whiteSpace=wrap;html=1;dashed=1;labelBackgroundColor=none;fillColor=#FFFFFF;labelPosition=center;verticalLabelPosition=top;align=center;verticalAlign=bottom;spacingTop=0;spacingBottom=-35;strokeColor=none;" parent="X5ZwWqdyRUsjHiMsH3oK-8" vertex="1">
          <mxGeometry width="90" height="159" as="geometry" />
        </mxCell>
        <mxCell id="X5ZwWqdyRUsjHiMsH3oK-10" value="Web App" style="aspect=fixed;html=1;points=[];align=center;image;fontSize=12;image=img/lib/azure2/compute/App_Services.svg;labelPosition=center;verticalLabelPosition=top;verticalAlign=bottom;labelBackgroundColor=none;" parent="X5ZwWqdyRUsjHiMsH3oK-8" vertex="1">
          <mxGeometry x="13" y="81" width="64" height="64" as="geometry" />
        </mxCell>
        <mxCell id="nS7G6HGLdNA0ssoNfDGa-1" value="" style="image;sketch=0;aspect=fixed;html=1;points=[];align=center;fontSize=12;image=img/lib/mscae/Data_Lake_Store.svg;" parent="1" vertex="1">
          <mxGeometry x="619" y="452" width="50" height="39" as="geometry" />
        </mxCell>
        <mxCell id="nS7G6HGLdNA0ssoNfDGa-2" value="" style="image;aspect=fixed;html=1;points=[];align=center;fontSize=12;image=img/lib/azure2/analytics/Data_Lake_Analytics.svg;" parent="1" vertex="1">
          <mxGeometry x="750" y="410" width="68" height="68" as="geometry" />
        </mxCell>
        <mxCell id="nS7G6HGLdNA0ssoNfDGa-3" value="" style="image;aspect=fixed;html=1;points=[];align=center;fontSize=12;image=img/lib/azure2/storage/Data_Lake_Storage_Gen1.svg;" parent="1" vertex="1">
          <mxGeometry x="990" y="446" width="64" height="52" as="geometry" />
        </mxCell>
        <mxCell id="nS7G6HGLdNA0ssoNfDGa-4" value="" style="image;sketch=0;aspect=fixed;html=1;points=[];align=center;fontSize=12;image=img/lib/mscae/Data_Lake_Analytics.svg;" parent="1" vertex="1">
          <mxGeometry x="1160" y="498" width="50" height="50" as="geometry" />
        </mxCell>
      </root>
    </mxGraphModel>
  </diagram>
  <diagram id="AliGHiKv-nwDa4q9GOV7" name="Generic_DataEngineering_Architecture">
    <mxGraphModel dx="2044" dy="1692" grid="1" gridSize="10" guides="1" tooltips="1" connect="1" arrows="1" fold="1" page="1" pageScale="1" pageWidth="850" pageHeight="1100" math="0" shadow="0">
      <root>
        <mxCell id="0" />
        <mxCell id="1" parent="0" />
        <mxCell id="uIVVulxG5DIAz92wCkmd-14" style="edgeStyle=orthogonalEdgeStyle;rounded=0;orthogonalLoop=1;jettySize=auto;html=1;" edge="1" parent="1" source="uIVVulxG5DIAz92wCkmd-1">
          <mxGeometry relative="1" as="geometry">
            <mxPoint x="-600" y="-440" as="targetPoint" />
            <Array as="points">
              <mxPoint x="-795" y="-440" />
            </Array>
          </mxGeometry>
        </mxCell>
        <mxCell id="uIVVulxG5DIAz92wCkmd-1" value="" style="image;aspect=fixed;html=1;points=[];align=center;fontSize=12;image=img/lib/azure2/databases/SQL_Server.svg;" vertex="1" parent="1">
          <mxGeometry x="-840" y="-320" width="90" height="90" as="geometry" />
        </mxCell>
        <mxCell id="hxXpQK6PNyRzvNH_rD_r-2" style="edgeStyle=orthogonalEdgeStyle;rounded=0;orthogonalLoop=1;jettySize=auto;html=1;entryX=0.518;entryY=-0.044;entryDx=0;entryDy=0;entryPerimeter=0;" edge="1" parent="1" source="uIVVulxG5DIAz92wCkmd-2" target="uIVVulxG5DIAz92wCkmd-12">
          <mxGeometry relative="1" as="geometry">
            <mxPoint x="-340" y="-445" as="targetPoint" />
          </mxGeometry>
        </mxCell>
        <mxCell id="uIVVulxG5DIAz92wCkmd-2" value="" style="image;aspect=fixed;html=1;points=[];align=center;fontSize=12;image=img/lib/azure2/databases/Data_Factory.svg;" vertex="1" parent="1">
          <mxGeometry x="-595.13" y="-490" width="90" height="90" as="geometry" />
        </mxCell>
        <mxCell id="uIVVulxG5DIAz92wCkmd-4" value="" style="image;sketch=0;aspect=fixed;html=1;points=[];align=center;fontSize=12;image=img/lib/mscae/Data_Lake.svg;" vertex="1" parent="1">
          <mxGeometry x="-593" y="-330" width="76" height="100" as="geometry" />
        </mxCell>
        <mxCell id="uIVVulxG5DIAz92wCkmd-6" value="" style="image;aspect=fixed;html=1;points=[];align=center;fontSize=12;image=img/lib/azure2/analytics/Azure_Databricks.svg;" vertex="1" parent="1">
          <mxGeometry x="-600" y="-158" width="99.74" height="108" as="geometry" />
        </mxCell>
        <mxCell id="uIVVulxG5DIAz92wCkmd-12" value="" style="image;aspect=fixed;html=1;points=[];align=center;fontSize=12;image=img/lib/azure2/analytics/Azure_Synapse_Analytics.svg;" vertex="1" parent="1">
          <mxGeometry x="-380" y="-325" width="78.26" height="90" as="geometry" />
        </mxCell>
        <mxCell id="uIVVulxG5DIAz92wCkmd-13" value="" style="image;aspect=fixed;html=1;points=[];align=center;fontSize=12;image=img/lib/azure2/analytics/Power_BI_Embedded.svg;" vertex="1" parent="1">
          <mxGeometry x="-180" y="-320" width="60" height="80" as="geometry" />
        </mxCell>
        <mxCell id="uIVVulxG5DIAz92wCkmd-15" style="edgeStyle=orthogonalEdgeStyle;rounded=0;orthogonalLoop=1;jettySize=auto;html=1;entryX=0.566;entryY=-0.025;entryDx=0;entryDy=0;entryPerimeter=0;" edge="1" parent="1">
          <mxGeometry relative="1" as="geometry">
            <mxPoint x="-580.0999999999999" y="-400" as="sourcePoint" />
            <mxPoint x="-579.9839999999999" y="-332.5" as="targetPoint" />
          </mxGeometry>
        </mxCell>
        <mxCell id="uIVVulxG5DIAz92wCkmd-16" style="edgeStyle=orthogonalEdgeStyle;rounded=0;orthogonalLoop=1;jettySize=auto;html=1;entryX=0.559;entryY=0.98;entryDx=0;entryDy=0;entryPerimeter=0;" edge="1" parent="1">
          <mxGeometry relative="1" as="geometry">
            <mxPoint x="-530.0999999999999" y="-158" as="sourcePoint" />
            <mxPoint x="-530.5160000000001" y="-232" as="targetPoint" />
          </mxGeometry>
        </mxCell>
        <mxCell id="uIVVulxG5DIAz92wCkmd-17" style="edgeStyle=orthogonalEdgeStyle;rounded=0;orthogonalLoop=1;jettySize=auto;html=1;entryX=0.456;entryY=0.023;entryDx=0;entryDy=0;entryPerimeter=0;" edge="1" parent="1">
          <mxGeometry relative="1" as="geometry">
            <mxPoint x="-575" y="-230" as="sourcePoint" />
            <mxPoint x="-574.51856" y="-155.51600000000008" as="targetPoint" />
          </mxGeometry>
        </mxCell>
        <mxCell id="uIVVulxG5DIAz92wCkmd-19" style="edgeStyle=orthogonalEdgeStyle;rounded=0;orthogonalLoop=1;jettySize=auto;html=1;entryX=-0.025;entryY=0.494;entryDx=0;entryDy=0;entryPerimeter=0;" edge="1" parent="1" source="uIVVulxG5DIAz92wCkmd-12" target="uIVVulxG5DIAz92wCkmd-13">
          <mxGeometry relative="1" as="geometry" />
        </mxCell>
        <mxCell id="uIVVulxG5DIAz92wCkmd-42" value="Azure Data Factory" style="text;strokeColor=none;align=center;fillColor=none;html=1;verticalAlign=middle;whiteSpace=wrap;rounded=0;" vertex="1" parent="1">
          <mxGeometry x="-600.26" y="-530" width="80.26" height="30" as="geometry" />
        </mxCell>
        <mxCell id="uIVVulxG5DIAz92wCkmd-43" value="ON Premises SQL Server" style="text;strokeColor=none;align=center;fillColor=none;html=1;verticalAlign=middle;whiteSpace=wrap;rounded=0;" vertex="1" parent="1">
          <mxGeometry x="-850" y="-220" width="100" height="30" as="geometry" />
        </mxCell>
        <mxCell id="uIVVulxG5DIAz92wCkmd-44" value="Azure Databricks" style="text;strokeColor=none;align=center;fillColor=none;html=1;verticalAlign=middle;whiteSpace=wrap;rounded=0;" vertex="1" parent="1">
          <mxGeometry x="-500.26" y="-119" width="90.26" height="30" as="geometry" />
        </mxCell>
        <mxCell id="uIVVulxG5DIAz92wCkmd-45" value="Azure Synapse Analytics" style="text;strokeColor=none;align=center;fillColor=none;html=1;verticalAlign=middle;whiteSpace=wrap;rounded=0;" vertex="1" parent="1">
          <mxGeometry x="-390.87" y="-230" width="100" height="30" as="geometry" />
        </mxCell>
        <mxCell id="uIVVulxG5DIAz92wCkmd-46" value="Power BI Reports" style="text;strokeColor=none;align=center;fillColor=none;html=1;verticalAlign=middle;whiteSpace=wrap;rounded=0;" vertex="1" parent="1">
          <mxGeometry x="-190" y="-360" width="90" height="30" as="geometry" />
        </mxCell>
        <mxCell id="uIVVulxG5DIAz92wCkmd-48" value="ADLS Gen 2" style="text;strokeColor=none;align=center;fillColor=none;html=1;verticalAlign=middle;whiteSpace=wrap;rounded=0;" vertex="1" parent="1">
          <mxGeometry x="-643" y="-295" width="50" height="30" as="geometry" />
        </mxCell>
        <mxCell id="hxXpQK6PNyRzvNH_rD_r-1" style="edgeStyle=orthogonalEdgeStyle;rounded=0;orthogonalLoop=1;jettySize=auto;html=1;entryX=0.451;entryY=1.044;entryDx=0;entryDy=0;entryPerimeter=0;" edge="1" parent="1">
          <mxGeometry relative="1" as="geometry">
            <mxPoint x="-535" y="-330" as="sourcePoint" />
            <mxPoint x="-534.5400000000002" y="-396.03999999999996" as="targetPoint" />
          </mxGeometry>
        </mxCell>
        <mxCell id="V5L5PHok-a_ckJYCPmXK-1" value="&lt;font style=&quot;font-size: 24px;&quot;&gt;&lt;b&gt;Data Engineering Model&lt;/b&gt;&lt;/font&gt;" style="text;html=1;align=center;verticalAlign=middle;resizable=0;points=[];autosize=1;strokeColor=none;fillColor=none;" vertex="1" parent="1">
          <mxGeometry x="-560" y="-30" width="300" height="40" as="geometry" />
        </mxCell>
        <mxCell id="V5L5PHok-a_ckJYCPmXK-5" value="1" style="ellipse;whiteSpace=wrap;html=1;aspect=fixed;rotation=0;gradientColor=#223548;strokeColor=none;gradientDirection=east;fillColor=#5b738b;rounded=0;pointerEvents=0;fontFamily=Helvetica;fontSize=16;fontColor=#FFFFFF;spacingTop=4;spacingBottom=4;spacingLeft=4;spacingRight=4;points=[];fontStyle=1" vertex="1" parent="1">
          <mxGeometry x="-730" y="-440" width="30" height="30" as="geometry" />
        </mxCell>
        <mxCell id="V5L5PHok-a_ckJYCPmXK-6" value="2" style="ellipse;whiteSpace=wrap;html=1;aspect=fixed;rotation=0;gradientColor=#223548;strokeColor=none;gradientDirection=east;fillColor=#5b738b;rounded=0;pointerEvents=0;fontFamily=Helvetica;fontSize=16;fontColor=#FFFFFF;spacingTop=4;spacingBottom=4;spacingLeft=4;spacingRight=4;points=[];fontStyle=1" vertex="1" parent="1">
          <mxGeometry x="-610" y="-380" width="30" height="30" as="geometry" />
        </mxCell>
        <mxCell id="V5L5PHok-a_ckJYCPmXK-7" value="3" style="ellipse;whiteSpace=wrap;html=1;aspect=fixed;rotation=0;gradientColor=#223548;strokeColor=none;gradientDirection=east;fillColor=#5b738b;rounded=0;pointerEvents=0;fontFamily=Helvetica;fontSize=16;fontColor=#FFFFFF;spacingTop=4;spacingBottom=4;spacingLeft=4;spacingRight=4;points=[];fontStyle=1" vertex="1" parent="1">
          <mxGeometry x="-604.13" y="-200" width="30" height="30" as="geometry" />
        </mxCell>
        <mxCell id="V5L5PHok-a_ckJYCPmXK-8" value="4" style="ellipse;whiteSpace=wrap;html=1;aspect=fixed;rotation=0;gradientColor=#223548;strokeColor=none;gradientDirection=east;fillColor=#5b738b;rounded=0;pointerEvents=0;fontFamily=Helvetica;fontSize=16;fontColor=#FFFFFF;spacingTop=4;spacingBottom=4;spacingLeft=4;spacingRight=4;points=[];fontStyle=1" vertex="1" parent="1">
          <mxGeometry x="-530" y="-210" width="30" height="30" as="geometry" />
        </mxCell>
        <mxCell id="V5L5PHok-a_ckJYCPmXK-10" value="5" style="ellipse;whiteSpace=wrap;html=1;aspect=fixed;rotation=0;gradientColor=#223548;strokeColor=none;gradientDirection=east;fillColor=#5b738b;rounded=0;pointerEvents=0;fontFamily=Helvetica;fontSize=16;fontColor=#FFFFFF;spacingTop=4;spacingBottom=4;spacingLeft=4;spacingRight=4;points=[];fontStyle=1" vertex="1" parent="1">
          <mxGeometry x="-535" y="-370" width="30" height="30" as="geometry" />
        </mxCell>
        <mxCell id="V5L5PHok-a_ckJYCPmXK-11" value="6" style="ellipse;whiteSpace=wrap;html=1;aspect=fixed;rotation=0;gradientColor=#223548;strokeColor=none;gradientDirection=east;fillColor=#5b738b;rounded=0;pointerEvents=0;fontFamily=Helvetica;fontSize=16;fontColor=#FFFFFF;spacingTop=4;spacingBottom=4;spacingLeft=4;spacingRight=4;points=[];fontStyle=1" vertex="1" parent="1">
          <mxGeometry x="-440" y="-446" width="30" height="30" as="geometry" />
        </mxCell>
        <mxCell id="V5L5PHok-a_ckJYCPmXK-12" value="7" style="ellipse;whiteSpace=wrap;html=1;aspect=fixed;rotation=0;gradientColor=#223548;strokeColor=none;gradientDirection=east;fillColor=#5b738b;rounded=0;pointerEvents=0;fontFamily=Helvetica;fontSize=16;fontColor=#FFFFFF;spacingTop=4;spacingBottom=4;spacingLeft=4;spacingRight=4;points=[];fontStyle=1" vertex="1" parent="1">
          <mxGeometry x="-260" y="-310" width="30" height="30" as="geometry" />
        </mxCell>
      </root>
    </mxGraphModel>
  </diagram>
</mxfile>
